<?xml version="1.0" encoding="UTF-8" standalone="no"?>
<!-- Created with Inkscape (http://www.inkscape.org/) -->
<svg xmlns:dc="http://purl.org/dc/elements/1.1/" xmlns:cc="http://creativecommons.org/ns#" xmlns:rdf="http://www.w3.org/1999/02/22-rdf-syntax-ns#" xmlns:svg="http://www.w3.org/2000/svg" xmlns="http://www.w3.org/2000/svg" xmlns:sodipodi="http://sodipodi.sourceforge.net/DTD/sodipodi-0.dtd" xmlns:inkscape="http://www.inkscape.org/namespaces/inkscape" width="32" height="32" viewBox="0 0 32 32.000001" id="svg2" version="1.1" inkscape:version="0.91 r13725" sodipodi:docname="Puncture_b.svg">
  <defs id="defs4"/>
  <sodipodi:namedview id="base" pagecolor="#ffffff" bordercolor="#666666" borderopacity="1.0" inkscape:pageopacity="0.0" inkscape:pageshadow="2" inkscape:zoom="1" inkscape:cx="-97.723832" inkscape:cy="76.983024" inkscape:document-units="px" inkscape:current-layer="layer1" showgrid="false" units="px" inkscape:window-width="1920" inkscape:window-height="1017" inkscape:window-x="-8" inkscape:window-y="-8" inkscape:window-maximized="1"/>
  <metadata id="metadata7">
    <rdf:RDF>
      <cc:Work rdf:about="">
        <dc:format>image/svg+xml</dc:format>
        <dc:type rdf:resource="http://purl.org/dc/dcmitype/StillImage"/>
        <dc:title/>
      </cc:Work>
    </rdf:RDF>
  </metadata>
  <g inkscape:label="Layer 1" inkscape:groupmode="layer" id="layer1" transform="translate(0,-1020.3622)">
    <path style="fill:#000000;fill-opacity:1;fill-rule:evenodd;stroke:none;stroke-width:1px;stroke-linecap:butt;stroke-linejoin:miter;stroke-opacity:1" d="m 1.6607143,1022.8443 14.5387317,15.6401 c 0.355132,0.071 1.315673,-0.6467 1.220971,-1.0097 L 4.440378,1020.6144 c -0.7234301,-0.4516 -3.0296637,1.5424 -2.7796637,2.2299 z" id="path3349" inkscape:connector-curvature="0" sodipodi:nodetypes="ccccc"/>
    <path style="fill:#000000;fill-opacity:1;fill-rule:evenodd;stroke:none;stroke-width:1px;stroke-linecap:butt;stroke-linejoin:miter;stroke-opacity:1" d="m 21.622549,1044.6503 c -0.07779,-0.2559 0.580474,-0.8446 0.780582,-0.7336 l 6.566389,8.3864 c 0.0039,0.051 -0.05434,0.054 -0.05434,0.054 z" id="path4151" inkscape:connector-curvature="0" sodipodi:nodetypes="ccccc"/>
    <path style="fill:#000000;fill-opacity:1;fill-rule:evenodd;stroke:none;stroke-width:1px;stroke-linecap:butt;stroke-linejoin:miter;stroke-opacity:1" d="m 11.869615,1035.5377 c -9.507582,7.3142 -11.0822632,12.3886 -9.6374721,14.4137 4.6902372,5.4643 33.3753591,-15.8726 28.5588661,-21.4398 -1.420866,-1.2678 -5.333842,-3.3654 -15.542696,4.7443 l 0.162447,0.1674 c 0,0 9.288552,-6.9939 12.170898,-5.2526 5.012913,2.5567 -20.088792,21.5397 -24.0039478,18.7496 -1.6334464,-1.2565 5.0706363,-8.4288 8.5398788,-11.1247 z" id="path4164" inkscape:connector-curvature="0" sodipodi:nodetypes="ccccccccc"/>
  </g>
</svg>